<svg width="25" height="26" viewBox="0 0 25 26" fill="none" xmlns="http://www.w3.org/2000/svg">
<path d="M12.5002 2.58333C18.2533 2.58333 22.9168 7.24687 22.9168 13C22.9168 18.7531 18.2533 23.4167 12.5002 23.4167C6.74704 23.4167 2.0835 18.7531 2.0835 13C2.0835 7.24687 6.74704 2.58333 12.5002 2.58333ZM12.5002 4.66666C10.29 4.66666 8.17041 5.54464 6.60761 7.10744C5.0448 8.67024 4.16683 10.7899 4.16683 13C4.16683 15.2101 5.0448 17.3298 6.60761 18.8926C8.17041 20.4554 10.29 21.3333 12.5002 21.3333C14.7103 21.3333 16.8299 20.4554 18.3927 18.8926C19.9555 17.3298 20.8335 15.2101 20.8335 13C20.8335 10.7899 19.9555 8.67024 18.3927 7.10744C16.8299 5.54464 14.7103 4.66666 12.5002 4.66666ZM12.5002 6.75C12.7553 6.75003 13.0016 6.8437 13.1922 7.01324C13.3829 7.18278 13.5047 7.4164 13.5345 7.66979L13.5418 7.79166V12.5687L16.3616 15.3885C16.5484 15.576 16.6569 15.8275 16.665 16.0921C16.6731 16.3566 16.5801 16.6143 16.4051 16.8128C16.2301 17.0113 15.986 17.1357 15.7226 17.1608C15.4591 17.1859 15.196 17.1098 14.9866 16.9479L14.8887 16.8615L11.7637 13.7365C11.6018 13.5744 11.4978 13.3635 11.4679 13.1365L11.4585 13V7.79166C11.4585 7.51539 11.5682 7.25044 11.7636 7.05509C11.9589 6.85974 12.2239 6.75 12.5002 6.75Z" fill="black"/>
</svg>
