<svg width="32" height="32" viewBox="0 0 32 32" fill="none" xmlns="http://www.w3.org/2000/svg">
<path d="M26 30H24V25C23.9984 23.6744 23.4711 22.4036 22.5338 21.4662C21.5964 20.5289 20.3256 20.0016 19 20H13C11.6744 20.0016 10.4036 20.5289 9.46622 21.4662C8.52888 22.4036 8.00159 23.6744 8 25V30H6V25C6.00265 23.1443 6.74099 21.3654 8.05317 20.0532C9.36536 18.741 11.1443 18.0026 13 18H19C20.8557 18.0026 22.6346 18.741 23.9468 20.0532C25.259 21.3654 25.9974 23.1443 26 25V30ZM22 6V10C22 11.103 21.103 12 20 12H19C18.7348 12 18.4804 12.1054 18.2929 12.2929C18.1054 12.4804 18 12.7348 18 13C18 13.2652 18.1054 13.5196 18.2929 13.7071C18.4804 13.8946 18.7348 14 19 14H20C22.206 14 24 12.206 24 10V6H22ZM16 16C12.14 16 9 12.86 9 9C9 5.14 12.14 2 16 2C17.989 2 19.89 2.85 21.217 4.333L19.727 5.667C19.258 5.14257 18.6836 4.72301 18.0414 4.43575C17.3992 4.1485 16.7035 4.00001 16 4C13.243 4 11 6.243 11 9C11 11.757 13.243 14 16 14V16Z" fill="black"/>
</svg>
