<svg width="25" height="25" viewBox="0 0 25 25" fill="none" xmlns="http://www.w3.org/2000/svg">
<path d="M11.4101 11.5904C10.4486 11.5904 9.50879 11.3053 8.70938 10.7711C7.90998 10.237 7.28692 9.4778 6.91899 8.58954C6.55106 7.70129 6.4548 6.72389 6.64236 5.78092C6.82993 4.83796 7.29291 3.97179 7.97275 3.29195C8.65259 2.61211 9.51875 2.14914 10.4617 1.96157C11.4047 1.774 12.3821 1.87027 13.2703 2.2382C14.1586 2.60612 14.9178 3.22918 15.4519 4.02859C15.9861 4.82799 16.2712 5.76784 16.2712 6.72928C16.2712 8.01852 15.759 9.25497 14.8474 10.1666C13.9358 11.0782 12.6993 11.5904 11.4101 11.5904ZM11.4101 3.31261C10.7233 3.31261 10.052 3.51625 9.48101 3.89779C8.91 4.27932 8.46496 4.82161 8.20216 5.45607C7.93935 6.09054 7.87059 6.78869 8.00457 7.46223C8.13854 8.13578 8.46924 8.75447 8.95484 9.24007C9.44044 9.72566 10.0591 10.0564 10.7327 10.1903C11.4062 10.3243 12.1044 10.2556 12.7388 9.99275C13.3733 9.72994 13.9156 9.2849 14.2971 8.7139C14.6787 8.14289 14.8823 7.47157 14.8823 6.78483C14.8823 6.32886 14.7925 5.87734 14.618 5.45607C14.4435 5.0348 14.1877 4.65203 13.8653 4.3296C13.5429 4.00718 13.1601 3.75141 12.7388 3.57692C12.3176 3.40242 11.8661 3.31261 11.4101 3.31261ZM15.2781 12.4307C11.5201 11.585 7.58856 11.9923 4.08368 13.5904C3.60166 13.8206 3.19498 14.1831 2.91097 14.6355C2.62697 15.088 2.47734 15.6118 2.47952 16.1459V20.2779C2.47952 20.3691 2.49748 20.4594 2.53238 20.5436C2.56728 20.6279 2.61843 20.7045 2.68291 20.7689C2.7474 20.8334 2.82395 20.8846 2.90821 20.9195C2.99246 20.9544 3.08276 20.9723 3.17396 20.9723C3.26516 20.9723 3.35546 20.9544 3.43971 20.9195C3.52397 20.8846 3.60052 20.8334 3.66501 20.7689C3.72949 20.7045 3.78064 20.6279 3.81554 20.5436C3.85044 20.4594 3.8684 20.3691 3.8684 20.2779V16.1459C3.86236 15.8756 3.93536 15.6094 4.07846 15.3799C4.22156 15.1505 4.42852 14.9678 4.67396 14.8543C6.78526 13.8794 9.0846 13.3793 11.4101 13.389C12.7131 13.3873 14.0116 13.5412 15.2781 13.8473V12.4307ZM15.3753 19.0348H19.6392V20.0071H15.3753V19.0348Z" fill="black"/>
<path d="M23.0349 14.9096H19.4447V16.2985H22.3405V22.111H12.5002V16.2985H16.8752V16.5902C16.8752 16.7743 16.9484 16.951 17.0786 17.0812C17.2088 17.2114 17.3855 17.2846 17.5697 17.2846C17.7538 17.2846 17.9305 17.2114 18.0607 17.0812C18.1909 16.951 18.2641 16.7743 18.2641 16.5902V13.8888C18.2641 13.7046 18.1909 13.528 18.0607 13.3977C17.9305 13.2675 17.7538 13.1943 17.5697 13.1943C17.3855 13.1943 17.2088 13.2675 17.0786 13.3977C16.9484 13.528 16.8752 13.7046 16.8752 13.8888V14.9096H11.8058C11.6216 14.9096 11.445 14.9828 11.3147 15.113C11.1845 15.2432 11.1113 15.4199 11.1113 15.6041V22.8054C11.1113 22.9896 11.1845 23.1663 11.3147 23.2965C11.445 23.4267 11.6216 23.4999 11.8058 23.4999H23.0349C23.2191 23.4999 23.3958 23.4267 23.526 23.2965C23.6562 23.1663 23.7294 22.9896 23.7294 22.8054V15.6041C23.7294 15.4199 23.6562 15.2432 23.526 15.113C23.3958 14.9828 23.2191 14.9096 23.0349 14.9096Z" fill="black"/>
</svg>
