<svg width="17" height="13" viewBox="0 0 17 13" fill="none" xmlns="http://www.w3.org/2000/svg">
<path d="M0.142583 0.31C0.259329 0.14908 0.43519 0.0410968 0.631516 0.00978208C0.827842 -0.0215327 1.02857 0.0263835 1.18958 0.143L15.6896 10.643C15.7724 10.6995 15.8431 10.7721 15.8973 10.8564C15.9516 10.9407 15.9885 11.0351 16.0057 11.1339C16.0229 11.2326 16.0201 11.3339 15.9975 11.4316C15.9748 11.5293 15.9329 11.6214 15.874 11.7026C15.8152 11.7838 15.7406 11.8524 15.6548 11.9043C15.569 11.9562 15.4737 11.9903 15.3744 12.0047C15.2752 12.0191 15.1741 12.0134 15.077 11.9881C14.98 11.9627 14.8891 11.9181 14.8096 11.857L12.5616 10.229C11.3456 11.19 9.79158 12 7.99958 12C6.01858 12 4.32958 11.008 3.06658 9.922C1.79658 8.832 0.879583 7.577 0.429583 6.9C0.252223 6.63391 0.157581 6.32128 0.157581 6.0015C0.157581 5.68172 0.252223 5.36909 0.429583 5.103C0.782583 4.57 1.42458 3.683 2.29758 2.798L0.309583 1.357C0.148663 1.24025 0.0406801 1.06439 0.00936539 0.868067C-0.0219493 0.671741 0.0259669 0.471013 0.142583 0.31ZM1.67858 5.932C1.66451 5.95191 1.65684 5.97563 1.65658 6C1.65592 6.022 1.66325 6.04467 1.67858 6.068C2.09058 6.689 2.92058 7.818 4.04458 8.785C5.17458 9.758 6.52658 10.5 7.99958 10.5C9.19458 10.5 10.3096 10.012 11.2896 9.309L9.06258 7.695C8.72495 7.90708 8.33162 8.0134 7.93312 8.00031C7.53462 7.98721 7.14912 7.85531 6.82613 7.62153C6.50314 7.38775 6.2574 7.06277 6.12045 6.68831C5.98351 6.31384 5.96162 5.907 6.05758 5.52L3.52858 3.688C2.83674 4.37071 2.21682 5.12266 1.67858 5.932ZM7.99958 1.5C7.48358 1.5 6.98258 1.59 6.50058 1.751C6.40646 1.78486 6.30651 1.79955 6.20662 1.79421C6.10673 1.78886 6.00891 1.76358 5.91894 1.71987C5.82896 1.67615 5.74864 1.61488 5.6827 1.53965C5.61677 1.46443 5.56654 1.37677 5.53499 1.28185C5.50344 1.18692 5.49119 1.08664 5.49898 0.986913C5.50676 0.887183 5.53442 0.790019 5.58032 0.701138C5.62622 0.612257 5.68943 0.533457 5.76625 0.469375C5.84306 0.405294 5.93191 0.357226 6.02758 0.328C6.66285 0.112715 7.32884 0.00194248 7.99958 0C9.98058 0 11.6696 0.992 12.9326 2.078C14.2026 3.169 15.1196 4.423 15.5696 5.101C15.7472 5.36719 15.8419 5.68001 15.8419 6C15.8419 6.31999 15.7472 6.63281 15.5696 6.899C15.4596 7.065 15.3216 7.264 15.1596 7.486C15.1013 7.56545 15.028 7.63265 14.9438 7.68376C14.8596 7.73488 14.7661 7.7689 14.6688 7.7839C14.5714 7.7989 14.4721 7.79457 14.3764 7.77117C14.2807 7.74776 14.1905 7.70574 14.1111 7.6475C14.0316 7.58926 13.9644 7.51594 13.9133 7.43173C13.8622 7.34752 13.8282 7.25406 13.8132 7.1567C13.7982 7.05934 13.8025 6.95997 13.8259 6.86428C13.8493 6.76859 13.8913 6.67845 13.9496 6.599C14.0976 6.398 14.2216 6.217 14.3206 6.069C14.3346 6.04889 14.3421 6.02499 14.3421 6.0005C14.3421 5.97601 14.3346 5.95211 14.3206 5.932C13.9086 5.311 13.0786 4.182 11.9546 3.215C10.8246 2.242 9.47258 1.5 7.99958 1.5Z" fill="black"/>
</svg>
