<svg width="16" height="12" viewBox="0 0 16 12" fill="none" xmlns="http://www.w3.org/2000/svg">
<path d="M15.954 5.757C15.9307 5.69775 15.366 4.2885 14.1107 2.87625C12.438 0.9945 10.3253 0 8 0C5.67466 0 3.562 0.9945 1.88933 2.87625C0.633994 4.2885 0.0666603 5.7 0.0459936 5.757C0.0156691 5.83373 0 5.91677 0 6.00075C0 6.08473 0.0156691 6.16777 0.0459936 6.2445C0.069327 6.30375 0.633994 7.71225 1.88933 9.1245C3.562 11.0055 5.67466 12 8 12C10.3253 12 12.438 11.0055 14.1107 9.1245C15.366 7.71225 15.9307 6.30375 15.954 6.2445C15.9843 6.16777 16 6.08473 16 6.00075C16 5.91677 15.9843 5.83373 15.954 5.757ZM8 10.8C5.948 10.8 4.15533 9.96075 2.67133 8.30625C2.06243 7.62502 1.54439 6.84822 1.13333 6C1.54428 5.1517 2.06233 4.37488 2.67133 3.69375C4.15533 2.03925 5.948 1.2 8 1.2C10.052 1.2 11.8447 2.03925 13.3287 3.69375C13.9388 4.37472 14.4579 5.15154 14.87 6C14.3893 7.0095 12.2953 10.8 8 10.8ZM8 2.4C7.3671 2.4 6.74841 2.61114 6.22217 3.00671C5.69594 3.40228 5.28578 3.96453 5.04358 4.62234C4.80138 5.28015 4.73801 6.00399 4.86148 6.70233C4.98496 7.40066 5.28973 8.04212 5.73726 8.54559C6.18478 9.04905 6.75497 9.39192 7.37571 9.53083C7.99645 9.66973 8.63986 9.59844 9.22459 9.32597C9.80931 9.05349 10.3091 8.59207 10.6607 8.00005C11.0123 7.40804 11.2 6.71201 11.2 6C11.1991 5.04553 10.8617 4.13043 10.2618 3.45551C9.66184 2.7806 8.84842 2.40099 8 2.4ZM8 8.4C7.57807 8.4 7.16561 8.25924 6.81478 7.99553C6.46396 7.73181 6.19052 7.35698 6.02906 6.91844C5.86759 6.4799 5.82534 5.99734 5.90766 5.53178C5.98997 5.06623 6.19315 4.63859 6.4915 4.30294C6.78986 3.9673 7.16998 3.73872 7.58381 3.64612C7.99763 3.55351 8.42658 3.60104 8.81639 3.78269C9.20621 3.96434 9.53939 4.27195 9.7738 4.66663C10.0082 5.06131 10.1333 5.52533 10.1333 6C10.1333 6.63652 9.90857 7.24697 9.50849 7.69706C9.10842 8.14714 8.5658 8.4 8 8.4Z" fill="black"/>
</svg>
