<svg xmlns="http://www.w3.org/2000/svg" id="Layer_1" x="0" y="0" version="1.1" viewBox="0 0 30 30" xml:space="preserve" width="256" height="256"><path d="M26 26.3H4c-.6 0-1-.4-1-1v-8.9c0-.6.4-1 1-1h22c.6 0 1 .4 1 1v8.9c0 .5-.4 1-1 1zm-21-2h20v-6.9H5v6.9z" fill="#000000" class="color000 svgShape"></path><path d="M17.5 22.6h-5c-.6 0-1-.4-1-1V20c0-.6.4-1 1-1s1 .4 1 1v.6h3V20c0-.6.4-1 1-1s1 .4 1 1v1.6c0 .6-.5 1-1 1zM23.7 17.3H6.3c-.6 0-1-.4-1-1V4.7c0-.6.4-1 1-1h17.4c.6 0 1 .4 1 1v11.6c0 .6-.5 1-1 1zm-16.4-2h15.4V5.7H7.3v9.6z" fill="#000000" class="color000 svgShape"></path><path d="M20.3 9.7H9.7c-.6 0-1-.4-1-1s.4-1 1-1h10.6c.6 0 1 .4 1 1s-.4 1-1 1zM20.3 13.8H9.7c-.6 0-1-.4-1-1s.4-1 1-1h10.6c.6 0 1 .4 1 1s-.4 1-1 1z" fill="#000000" class="color000 svgShape"></path></svg>