<svg width="25" height="25" viewBox="0 0 25 25" fill="none" xmlns="http://www.w3.org/2000/svg">
<path d="M23.4375 18.75V17.1875H21.7961C21.6947 16.6986 21.5006 16.2337 21.2242 15.818L22.3883 14.6539L21.2836 13.5492L20.1195 14.7133C19.7038 14.4369 19.2389 14.2428 18.75 14.1414V12.5H17.1875V14.1414C16.6986 14.2428 16.2337 14.4369 15.818 14.7133L14.6539 13.5492L13.5492 14.6539L14.7133 15.818C14.4369 16.2337 14.2428 16.6986 14.1414 17.1875H12.5V18.75H14.1414C14.243 19.2477 14.4414 19.7102 14.7133 20.1195L13.5492 21.2836L14.6539 22.3883L15.818 21.2242C16.2337 21.5006 16.6986 21.6947 17.1875 21.7961V23.4375H18.75V21.7961C19.2389 21.6947 19.7038 21.5006 20.1195 21.2242L21.2836 22.3883L22.3883 21.2836L21.2242 20.1195C21.5006 19.7038 21.6947 19.2389 21.7961 18.75H23.4375ZM17.9688 20.3125C16.6766 20.3125 15.625 19.2609 15.625 17.9688C15.625 16.6766 16.6766 15.625 17.9688 15.625C19.2609 15.625 20.3125 16.6766 20.3125 17.9688C20.3125 19.2609 19.2609 20.3125 17.9688 20.3125ZM9.375 4.6875H12.5V6.25H9.375V4.6875Z" fill="black"/>
<path d="M4.6875 21.875V3.125H17.1875V10.1562H18.75V3.125C18.75 2.26328 18.0492 1.5625 17.1875 1.5625H4.6875C3.82578 1.5625 3.125 2.26328 3.125 3.125V21.875C3.125 22.7367 3.82578 23.4375 4.6875 23.4375H10.9375V21.875H4.6875Z" fill="black"/>
</svg>
